<svg xmlns="http://www.w3.org/2000/svg" xmlns:xlink="http://www.w3.org/1999/xlink" width="1728" zoomAndPan="magnify" viewBox="0 0 1296 1727.999927" height="2304" preserveAspectRatio="xMidYMid meet" version="1.0"><defs><clipPath id="26267c0890"><path d="M 412.800781 628.800781 L 931.050781 628.800781 L 931.050781 1147.050781 L 412.800781 1147.050781 Z M 412.800781 628.800781 " clip-rule="nonzero"/></clipPath></defs><rect x="-129.6" width="1555.2" fill="#ffffff" y="-172.799993" height="2073.599912" fill-opacity="1"/><rect x="-129.6" width="1555.2" fill="#ffffff" y="-172.799993" height="2073.599912" fill-opacity="1"/><rect x="-129.6" width="1555.2" fill="#ffffff" y="-172.799993" height="2073.599912" fill-opacity="1"/><g clip-path="url(#26267c0890)"><path fill="#000000" d="M 736.574219 1147.042969 C 736.574219 1147.042969 736.574219 1147.042969 606.257812 1147.042969 C 606.257812 1147.042969 606.257812 1147.042969 606.257812 954.59375 C 606.257812 954.59375 606.257812 954.59375 412.800781 954.59375 C 412.800781 954.59375 412.800781 954.59375 412.800781 822.257812 C 412.800781 822.257812 412.800781 822.257812 606.257812 822.257812 C 606.257812 822.257812 606.257812 822.257812 606.257812 628.800781 C 606.257812 628.800781 606.257812 628.800781 736.574219 628.800781 C 736.574219 628.800781 736.574219 628.800781 736.574219 822.257812 C 736.574219 822.257812 736.574219 822.257812 931.042969 822.257812 C 931.042969 822.257812 931.042969 822.257812 931.042969 954.59375 C 931.042969 954.59375 931.042969 954.59375 736.574219 954.59375 C 736.574219 954.59375 736.574219 954.59375 736.574219 1147.042969 Z M 736.574219 1147.042969 " fill-opacity="1" fill-rule="nonzero"/></g></svg>